<?xml version="1.0" encoding="UTF-8"?>
<!DOCTYPE svg PUBLIC "-//W3C//DTD SVG 1.1//EN" "http://www.w3.org/Graphics/SVG/1.1/DTD/svg11.dtd">
<svg xmlns="http://www.w3.org/2000/svg" version="1.1" width="640px" height="465px" style="shape-rendering:geometricPrecision; text-rendering:geometricPrecision; image-rendering:optimizeQuality; fill-rule:evenodd; clip-rule:evenodd" xmlns:xlink="http://www.w3.org/1999/xlink">
<g><path style="opacity:1" fill="#350546" d="M -0.5,-0.5 C 212.833,-0.5 426.167,-0.5 639.5,-0.5C 639.5,154.5 639.5,309.5 639.5,464.5C 426.167,464.5 212.833,464.5 -0.5,464.5C -0.5,309.5 -0.5,154.5 -0.5,-0.5 Z"/></g>
<g><path style="opacity:1" fill="#fe7379" d="M 443.5,62.5 C 439.451,61.3067 435.784,59.3067 432.5,56.5C 417.749,56.9609 404.416,58.1276 392.5,60C 399.666,61.2984 407,61.965 414.5,62C 410.167,62.3333 405.833,62.6667 401.5,63C 402.5,63.3333 403.5,63.6667 404.5,64C 402.167,64.3333 399.833,64.6667 397.5,65C 401.871,65.1725 406.204,65.6725 410.5,66.5C 409.091,66.6541 407.424,66.8208 405.5,67C 406.96,67.8113 407.293,68.6446 406.5,69.5C 405.109,68.3554 403.776,68.3554 402.5,69.5C 405.32,70.3818 407.986,71.5485 410.5,73C 409.833,73.3333 409.167,73.6667 408.5,74C 411.289,74.2414 413.956,74.908 416.5,76C 415.377,77.0437 414.044,77.7104 412.5,78C 423.113,79.7563 422.779,80.7563 411.5,81C 412.167,81.6667 412.833,82.3333 413.5,83C 380.167,84.5225 346.833,85.5225 313.5,86C 314.833,85.3333 316.167,84.6667 317.5,84C 314.167,83.6667 310.833,83.3333 307.5,83C 312.386,81.7758 317.386,81.1091 322.5,81C 319.167,80.6667 315.833,80.3333 312.5,80C 313.833,79.3333 313.833,78.6667 312.5,78C 314.473,77.5045 316.473,77.3379 318.5,77.5C 318.33,76.1779 318.663,75.0113 319.5,74C 321.5,73.3333 323.5,72.6667 325.5,72C 323.241,70.5306 320.241,69.5306 316.5,69C 320.749,67.8744 325.082,67.2077 329.5,67C 325.339,66.8275 322.672,65.9942 321.5,64.5C 318.497,65.138 315.497,65.3047 312.5,65C 320.123,63.9218 327.789,62.9218 335.5,62C 330.799,61.2807 326.133,61.4474 321.5,62.5C 319.627,62.5177 319.294,62.0177 320.5,61C 315.833,60.8333 311.167,60.6667 306.5,60.5C 271.941,61.6047 237.608,62.6047 203.5,63.5C 201.421,63.0293 199.421,62.3627 197.5,61.5C 244.934,27.645 297.601,15.4784 355.5,25C 387.915,30.7193 417.249,43.2193 443.5,62.5 Z"/></g>
<g><path style="opacity:1" fill="#fe6e77" d="M 443.5,62.5 C 447.482,65.1518 451.149,68.1518 454.5,71.5C 432.493,76.6112 411.493,84.2779 391.5,94.5C 389.5,94.8333 387.5,95.1667 385.5,95.5C 366.164,95.6666 346.83,95.5 327.5,95C 306.592,92.2851 285.925,88.2851 265.5,83C 244.475,77.3791 223.808,70.8791 203.5,63.5C 237.608,62.6047 271.941,61.6047 306.5,60.5C 311.167,60.6667 315.833,60.8333 320.5,61C 319.294,62.0177 319.627,62.5177 321.5,62.5C 326.133,61.4474 330.799,61.2807 335.5,62C 327.789,62.9218 320.123,63.9218 312.5,65C 315.497,65.3047 318.497,65.138 321.5,64.5C 322.672,65.9942 325.339,66.8275 329.5,67C 325.082,67.2077 320.749,67.8744 316.5,69C 320.241,69.5306 323.241,70.5306 325.5,72C 323.5,72.6667 321.5,73.3333 319.5,74C 318.663,75.0113 318.33,76.1779 318.5,77.5C 316.473,77.3379 314.473,77.5045 312.5,78C 313.833,78.6667 313.833,79.3333 312.5,80C 315.833,80.3333 319.167,80.6667 322.5,81C 317.386,81.1091 312.386,81.7758 307.5,83C 310.833,83.3333 314.167,83.6667 317.5,84C 316.167,84.6667 314.833,85.3333 313.5,86C 346.833,85.5225 380.167,84.5225 413.5,83C 412.833,82.3333 412.167,81.6667 411.5,81C 422.779,80.7563 423.113,79.7563 412.5,78C 414.044,77.7104 415.377,77.0437 416.5,76C 413.956,74.908 411.289,74.2414 408.5,74C 409.167,73.6667 409.833,73.3333 410.5,73C 407.986,71.5485 405.32,70.3818 402.5,69.5C 403.776,68.3554 405.109,68.3554 406.5,69.5C 407.293,68.6446 406.96,67.8113 405.5,67C 407.424,66.8208 409.091,66.6541 410.5,66.5C 406.204,65.6725 401.871,65.1725 397.5,65C 399.833,64.6667 402.167,64.3333 404.5,64C 403.5,63.6667 402.5,63.3333 401.5,63C 405.833,62.6667 410.167,62.3333 414.5,62C 407,61.965 399.666,61.2984 392.5,60C 404.416,58.1276 417.749,56.9609 432.5,56.5C 435.784,59.3067 439.451,61.3067 443.5,62.5 Z"/></g>
<g><path style="opacity:1" fill="#fe7a7d" d="M 454.5,71.5 C 468.623,82.6198 480.623,95.6198 490.5,110.5C 485.146,110.431 479.813,110.098 474.5,109.5C 454.105,107.818 434.105,103.652 414.5,97C 406.851,95.9375 399.184,95.1041 391.5,94.5C 411.493,84.2779 432.493,76.6112 454.5,71.5 Z"/></g>
<g><path style="opacity:1" fill="#fe7878" d="M 197.5,61.5 C 199.421,62.3627 201.421,63.0293 203.5,63.5C 223.808,70.8791 244.475,77.3791 265.5,83C 285.925,88.2851 306.592,92.2851 327.5,95C 346.83,95.5 366.164,95.6666 385.5,95.5C 374.116,100.414 362.116,103.248 349.5,104C 325.46,104.599 301.46,104.266 277.5,103C 275.285,104.943 275.285,106.609 277.5,108C 276.743,109.512 275.743,110.846 274.5,112C 275.833,112.333 277.167,112.667 278.5,113C 277.167,113.667 277.167,114.333 278.5,115C 282.721,115.578 286.888,116.411 291,117.5C 291.95,116.978 292.784,116.311 293.5,115.5C 300.129,116.959 306.796,118.292 313.5,119.5C 314.672,119.919 315.672,120.585 316.5,121.5C 321.56,120.672 326.56,121.172 331.5,123C 329.792,124.51 328.126,126.01 326.5,127.5C 331.583,129.451 336.583,130.451 341.5,130.5C 329.481,134.393 317.814,139.059 306.5,144.5C 286.615,152.305 265.615,155.972 243.5,155.5C 242.959,159.295 244.625,161.295 248.5,161.5C 242.598,162.71 236.931,161.877 231.5,159C 229.388,156.684 226.722,155.35 223.5,155C 195.33,153.697 167.33,150.864 139.5,146.5C 139.666,140.491 139.499,134.491 139,128.5C 138.617,127.944 138.117,127.611 137.5,127.5C 152.238,100.76 172.238,78.7596 197.5,61.5 Z"/></g>
<g><path style="opacity:1" fill="#ffbcb4" d="M 247.5,83.5 C 248.75,83.5774 249.583,84.244 250,85.5C 253.11,84.3266 253.277,84.8266 250.5,87C 251.167,87.3333 251.833,87.6667 252.5,88C 251.333,88.5 250.5,89.3333 250,90.5C 248.324,90.705 246.824,89.8717 245.5,88C 246.458,86.8525 246.125,85.8525 244.5,85C 245.449,84.3828 246.282,84.5494 247,85.5C 247.464,84.9056 247.631,84.2389 247.5,83.5 Z"/></g>
<g><path style="opacity:1" fill="#ff7e7d" d="M 391.5,94.5 C 399.184,95.1041 406.851,95.9375 414.5,97C 434.105,103.652 454.105,107.818 474.5,109.5C 429.174,110.555 384.84,117.555 341.5,130.5C 336.583,130.451 331.583,129.451 326.5,127.5C 328.126,126.01 329.792,124.51 331.5,123C 326.56,121.172 321.56,120.672 316.5,121.5C 315.672,120.585 314.672,119.919 313.5,119.5C 306.796,118.292 300.129,116.959 293.5,115.5C 292.784,116.311 291.95,116.978 291,117.5C 286.888,116.411 282.721,115.578 278.5,115C 277.167,114.333 277.167,113.667 278.5,113C 277.167,112.667 275.833,112.333 274.5,112C 275.743,110.846 276.743,109.512 277.5,108C 275.285,106.609 275.285,104.943 277.5,103C 301.46,104.266 325.46,104.599 349.5,104C 362.116,103.248 374.116,100.414 385.5,95.5C 387.5,95.1667 389.5,94.8333 391.5,94.5 Z"/></g>
<g><path style="opacity:1" fill="#ffb5b0" d="M 470.5,90.5 C 471.222,90.9175 471.722,91.5842 472,92.5C 475.11,91.3266 475.277,91.8266 472.5,94C 476.5,94.6667 476.5,95.3333 472.5,96C 473.673,99.1103 473.173,99.277 471,96.5C 470.026,98.8776 469.359,98.5443 469,95.5C 468.282,96.4506 467.449,96.6172 466.5,96C 467.328,95.0853 468.328,94.4186 469.5,94C 465.633,92.0125 465.633,91.5125 469.5,92.5C 470.298,92.0431 470.631,91.3764 470.5,90.5 Z"/></g>
<g><path style="opacity:1" fill="#fe8d85" d="M 474.5,109.5 C 479.813,110.098 485.146,110.431 490.5,110.5C 496.754,117.996 501.754,126.33 505.5,135.5C 504.213,134.232 503.213,134.565 502.5,136.5C 502.167,135.833 501.833,135.167 501.5,134.5C 499.902,135.485 498.235,135.651 496.5,135C 497.5,134.667 498.5,134.333 499.5,134C 493.278,134.829 487.112,134.329 481,132.5C 479.714,133.35 479.881,134.517 481.5,136C 479.167,136.333 476.833,136.667 474.5,137C 476.044,137.29 477.377,137.956 478.5,139C 475.28,140.266 472.947,142.433 471.5,145.5C 460.735,143.191 449.902,141.191 439,139.5C 438.5,139.833 438,140.167 437.5,140.5C 440.747,141.65 444.08,142.483 447.5,143C 448.696,143.654 448.696,144.154 447.5,144.5C 438.502,141.775 429.502,140.941 420.5,142C 420.833,142.333 421.167,142.667 421.5,143C 420.5,143.5 419.5,144 418.5,144.5C 417.304,144.154 417.304,143.654 418.5,143C 413.524,141.78 408.524,141.113 403.5,141C 405.595,141.556 405.762,142.056 404,142.5C 389.483,139.869 374.983,137.203 360.5,134.5C 359.749,135.376 359.249,136.376 359,137.5C 358.167,136 357,134.833 355.5,134C 350.569,133.355 345.903,132.189 341.5,130.5C 384.84,117.555 429.174,110.555 474.5,109.5 Z"/></g>
<g><path style="opacity:1" fill="#ffa69d" d="M 265.5,119.5 C 266.1,122.625 267.267,122.958 269,120.5C 269.617,121.449 269.451,122.282 268.5,123C 269.624,123.249 270.624,123.749 271.5,124.5C 269.433,126.755 267.266,128.088 265,128.5C 264.682,126.939 263.849,125.772 262.5,125C 264.607,123.736 265.607,121.903 265.5,119.5 Z"/></g>
<g><path style="opacity:1" fill="#ffaca5" d="M 166.5,127.5 C 171.672,127.416 172.839,129.083 170,132.5C 168.581,131.54 167.081,130.707 165.5,130C 166.252,129.329 166.586,128.496 166.5,127.5 Z"/></g>
<g><path style="opacity:1" fill="#fe8682" d="M 341.5,130.5 C 345.903,132.189 350.569,133.355 355.5,134C 357,134.833 358.167,136 359,137.5C 359.249,136.376 359.749,135.376 360.5,134.5C 374.983,137.203 389.483,139.869 404,142.5C 405.762,142.056 405.595,141.556 403.5,141C 408.524,141.113 413.524,141.78 418.5,143C 417.304,143.654 417.304,144.154 418.5,144.5C 419.5,144 420.5,143.5 421.5,143C 421.167,142.667 420.833,142.333 420.5,142C 429.502,140.941 438.502,141.775 447.5,144.5C 448.696,144.154 448.696,143.654 447.5,143C 444.08,142.483 440.747,141.65 437.5,140.5C 438,140.167 438.5,139.833 439,139.5C 449.902,141.191 460.735,143.191 471.5,145.5C 472.947,142.433 475.28,140.266 478.5,139C 477.377,137.956 476.044,137.29 474.5,137C 476.833,136.667 479.167,136.333 481.5,136C 479.881,134.517 479.714,133.35 481,132.5C 487.112,134.329 493.278,134.829 499.5,134C 498.5,134.333 497.5,134.667 496.5,135C 498.235,135.651 499.902,135.485 501.5,134.5C 501.833,135.167 502.167,135.833 502.5,136.5C 503.213,134.565 504.213,134.232 505.5,135.5C 512.431,147.377 517.764,160.044 521.5,173.5C 520.503,173.53 519.836,173.03 519.5,172C 518.035,165.904 515.868,160.07 513,154.5C 512.586,154.957 512.086,155.291 511.5,155.5C 503.776,153.589 495.943,152.256 488,151.5C 485.815,151.921 483.649,152.421 481.5,153C 483.384,153.216 485.051,153.883 486.5,155C 485.451,155.492 484.451,155.326 483.5,154.5C 482.572,156.335 481.406,156.668 480,155.5C 480.667,156.833 481.333,158.167 482,159.5C 480.467,159.056 478.967,158.723 477.5,158.5C 476.289,159.274 476.289,160.107 477.5,161C 472.623,161.591 471.956,162.924 475.5,165C 474.551,165.617 473.718,165.451 473,164.5C 472.517,165.448 472.351,166.448 472.5,167.5C 467.858,166.605 463.191,165.772 458.5,165C 457.027,164.29 456.36,163.124 456.5,161.5C 454.266,161.62 452.099,161.287 450,160.5C 448.48,161.507 446.813,162.173 445,162.5C 440.09,161.818 435.257,160.818 430.5,159.5C 429.548,161.045 429.215,162.712 429.5,164.5C 426.531,165.329 423.531,165.495 420.5,165C 416.299,162.657 411.799,161.157 407,160.5C 405.831,161.009 404.998,161.842 404.5,163C 405.245,165.725 404.245,165.725 401.5,163C 402.167,162.667 402.833,162.333 403.5,162C 401.939,161.682 400.772,160.849 400,159.5C 399.601,159.728 399.435,160.062 399.5,160.5C 387.376,141.183 370.709,136.017 349.5,145C 342.922,149.349 337.589,154.849 333.5,161.5C 328.746,161.483 324.079,160.816 319.5,159.5C 318.446,159.68 317.446,160.013 316.5,160.5C 313.941,158.818 311.107,157.818 308,157.5C 307.5,157.167 307,156.833 306.5,156.5C 307.376,155.749 308.376,155.249 309.5,155C 308.572,154.612 307.905,153.945 307.5,153C 308.206,150.38 309.206,147.88 310.5,145.5C 309.214,145.524 307.88,145.19 306.5,144.5C 317.814,139.059 329.481,134.393 341.5,130.5 Z"/></g>
<g><path style="opacity:1" fill="#ff908b" d="M 399.5,160.5 C 400.167,162.5 400.833,164.5 401.5,166.5C 401.167,168.5 400.833,170.5 400.5,172.5C 397.159,173.157 395.159,171.824 394.5,168.5C 392.929,167.691 391.262,167.357 389.5,167.5C 393.182,186.294 385.682,197.294 367,200.5C 352.833,199.334 344.833,191.667 343,177.5C 342.289,179.899 342.456,182.232 343.5,184.5C 341.997,185.052 340.331,185.052 338.5,184.5C 338.5,186.167 338.5,187.833 338.5,189.5C 336.708,189.366 335.042,189.699 333.5,190.5C 332.108,185.762 331.108,180.928 330.5,176C 331.108,171.071 332.108,166.238 333.5,161.5C 337.589,154.849 342.922,149.349 349.5,145C 370.709,136.017 387.376,141.183 399.5,160.5 Z"/></g>
<g><path style="opacity:1" fill="#fe7f7c" d="M 137.5,127.5 C 138.117,127.611 138.617,127.944 139,128.5C 139.499,134.491 139.666,140.491 139.5,146.5C 167.33,150.864 195.33,153.697 223.5,155C 226.722,155.35 229.388,156.684 231.5,159C 236.931,161.877 242.598,162.71 248.5,161.5C 244.625,161.295 242.959,159.295 243.5,155.5C 265.615,155.972 286.615,152.305 306.5,144.5C 307.88,145.19 309.214,145.524 310.5,145.5C 309.206,147.88 308.206,150.38 307.5,153C 307.905,153.945 308.572,154.612 309.5,155C 308.376,155.249 307.376,155.749 306.5,156.5C 307,156.833 307.5,157.167 308,157.5C 311.107,157.818 313.941,158.818 316.5,160.5C 317.446,160.013 318.446,159.68 319.5,159.5C 324.079,160.816 328.746,161.483 333.5,161.5C 332.108,166.238 331.108,171.071 330.5,176C 331.108,180.928 332.108,185.762 333.5,190.5C 334.773,192.713 335.773,195.046 336.5,197.5C 335.903,198.139 335.07,198.472 334,198.5C 328.516,197.336 323.016,196.336 317.5,195.5C 317.762,196.978 317.429,198.311 316.5,199.5C 315.548,197.955 315.215,196.288 315.5,194.5C 311.543,194.732 307.876,193.899 304.5,192C 307.648,192.107 310.814,192.607 314,193.5C 315.608,193.026 315.774,192.359 314.5,191.5C 311.024,190.923 307.691,189.923 304.5,188.5C 307.979,188.771 311.646,188.771 315.5,188.5C 307.926,186.702 300.593,184.368 293.5,181.5C 292.784,182.311 291.95,182.978 291,183.5C 287.184,182.028 283.351,181.695 279.5,182.5C 282.167,183.833 282.167,185.167 279.5,186.5C 280.833,187.167 282.167,187.833 283.5,188.5C 282.609,189.59 281.609,189.59 280.5,188.5C 279.999,190.655 278.999,192.322 277.5,193.5C 274.06,191.945 270.727,190.112 267.5,188C 263.514,187.501 259.514,187.334 255.5,187.5C 255.579,186.07 255.246,184.736 254.5,183.5C 255.651,182.269 256.817,182.269 258,183.5C 257.16,180.066 254.993,177.566 251.5,176C 251.833,175.667 252.167,175.333 252.5,175C 251.584,174.626 250.75,174.126 250,173.5C 249.692,174.308 249.192,174.975 248.5,175.5C 247.646,174.478 246.646,173.645 245.5,173C 246.308,172.692 246.975,172.192 247.5,171.5C 244.255,170.555 241.588,168.889 239.5,166.5C 236.704,168.754 233.704,169.087 230.5,167.5C 229.833,167.833 229.167,168.167 228.5,168.5C 229.376,169.251 230.376,169.751 231.5,170C 230.128,170.402 228.795,170.902 227.5,171.5C 226.672,170.585 225.672,169.919 224.5,169.5C 219.319,171.926 216.319,170.426 215.5,165C 213.567,164.749 211.734,164.249 210,163.5C 210.311,164.935 210.145,166.268 209.5,167.5C 208.224,168.645 206.891,168.645 205.5,167.5C 205.167,167.833 204.833,168.167 204.5,168.5C 205.376,169.251 206.376,169.751 207.5,170C 206.234,170.309 205.067,170.809 204,171.5C 203.033,170.322 202.533,168.989 202.5,167.5C 199.961,166.885 197.461,166.218 195,165.5C 194.383,166.449 194.549,167.282 195.5,168C 194.953,168.925 194.287,169.758 193.5,170.5C 189.89,169.342 186.223,168.842 182.5,169C 185.783,170.023 189.116,170.857 192.5,171.5C 193.932,171.733 194.432,172.4 194,173.5C 189.905,171.898 185.738,171.565 181.5,172.5C 178.241,170.969 174.907,169.636 171.5,168.5C 172.651,167.269 173.817,167.269 175,168.5C 160.457,163.297 145.124,159.297 129,156.5C 127.441,157.029 125.941,157.696 124.5,158.5C 123.642,160.901 122.309,162.901 120.5,164.5C 124.852,151.469 130.518,139.136 137.5,127.5 Z"/></g>
<g><path style="opacity:1" fill="#fe7f7e" d="M 521.5,173.5 C 522.578,176.402 523.244,179.402 523.5,182.5C 521.489,180.333 520.322,177.666 520,174.5C 518.286,175.925 516.953,175.592 516,173.5C 515.692,174.308 515.192,174.975 514.5,175.5C 508.201,174.061 501.868,172.727 495.5,171.5C 493.043,174.051 490.043,175.551 486.5,176C 491.721,176.542 491.721,177.376 486.5,178.5C 485.902,179.795 485.402,181.128 485,182.5C 484.586,182.043 484.086,181.709 483.5,181.5C 482.281,182.646 480.948,183.646 479.5,184.5C 483.311,185.738 483.311,186.404 479.5,186.5C 479.5,187.833 479.5,189.167 479.5,190.5C 477.774,190.185 476.107,190.019 474.5,190C 475.604,191.131 475.271,191.965 473.5,192.5C 472.571,193.689 472.238,195.022 472.5,196.5C 468.161,194.127 462.828,192.793 456.5,192.5C 456.67,191.178 456.337,190.011 455.5,189C 453.236,188.764 451.069,188.264 449,187.5C 448.517,188.448 448.351,189.448 448.5,190.5C 442.25,190 436.083,190 430,190.5C 428.321,196.404 425.988,201.404 423,205.5C 421.08,205.062 419.246,204.395 417.5,203.5C 418.025,202.808 418.692,202.308 419.5,202C 418.027,201.29 417.36,200.124 417.5,198.5C 413.772,198.156 410.105,197.49 406.5,196.5C 404.862,197.705 404.529,199.038 405.5,200.5C 402.465,201.665 399.465,201.498 396.5,200C 397.252,199.329 397.586,198.496 397.5,197.5C 400.025,192.09 401.859,186.423 403,180.5C 403.635,175.593 403.135,170.926 401.5,166.5C 400.833,164.5 400.167,162.5 399.5,160.5C 399.435,160.062 399.601,159.728 400,159.5C 400.772,160.849 401.939,161.682 403.5,162C 402.833,162.333 402.167,162.667 401.5,163C 404.245,165.725 405.245,165.725 404.5,163C 404.998,161.842 405.831,161.009 407,160.5C 411.799,161.157 416.299,162.657 420.5,165C 423.531,165.495 426.531,165.329 429.5,164.5C 429.215,162.712 429.548,161.045 430.5,159.5C 435.257,160.818 440.09,161.818 445,162.5C 446.813,162.173 448.48,161.507 450,160.5C 452.099,161.287 454.266,161.62 456.5,161.5C 456.36,163.124 457.027,164.29 458.5,165C 463.191,165.772 467.858,166.605 472.5,167.5C 472.351,166.448 472.517,165.448 473,164.5C 473.718,165.451 474.551,165.617 475.5,165C 471.956,162.924 472.623,161.591 477.5,161C 476.289,160.107 476.289,159.274 477.5,158.5C 478.967,158.723 480.467,159.056 482,159.5C 481.333,158.167 480.667,156.833 480,155.5C 481.406,156.668 482.572,156.335 483.5,154.5C 484.451,155.326 485.451,155.492 486.5,155C 485.051,153.883 483.384,153.216 481.5,153C 483.649,152.421 485.815,151.921 488,151.5C 495.943,152.256 503.776,153.589 511.5,155.5C 512.086,155.291 512.586,154.957 513,154.5C 515.868,160.07 518.035,165.904 519.5,172C 519.836,173.03 520.503,173.53 521.5,173.5 Z"/></g>
<g><path style="opacity:1" fill="#ffe5d8" d="M 360.5,159.5 C 377.821,157.656 385.655,165.322 384,182.5C 379.654,192.257 372.154,196.091 361.5,194C 348.933,187.475 346.1,177.975 353,165.5C 355.478,163.361 357.978,161.361 360.5,159.5 Z"/></g>
<g><path style="opacity:1" fill="#fe7876" d="M 255.5,187.5 C 252.126,187.674 248.793,188.174 245.5,189C 237.964,192.012 230.297,194.512 222.5,196.5C 215.059,192.61 207.726,188.444 200.5,184C 195.959,181.301 191.292,180.968 186.5,183C 178.471,189.176 169.805,194.01 160.5,197.5C 153.849,197.691 147.183,198.024 140.5,198.5C 136.802,196.732 132.969,195.399 129,194.5C 122.722,196.223 116.889,198.889 111.5,202.5C 112.933,189.438 115.933,176.771 120.5,164.5C 122.309,162.901 123.642,160.901 124.5,158.5C 125.941,157.696 127.441,157.029 129,156.5C 145.124,159.297 160.457,163.297 175,168.5C 173.817,167.269 172.651,167.269 171.5,168.5C 174.907,169.636 178.241,170.969 181.5,172.5C 185.738,171.565 189.905,171.898 194,173.5C 194.432,172.4 193.932,171.733 192.5,171.5C 189.116,170.857 185.783,170.023 182.5,169C 186.223,168.842 189.89,169.342 193.5,170.5C 194.287,169.758 194.953,168.925 195.5,168C 194.549,167.282 194.383,166.449 195,165.5C 197.461,166.218 199.961,166.885 202.5,167.5C 202.533,168.989 203.033,170.322 204,171.5C 205.067,170.809 206.234,170.309 207.5,170C 206.376,169.751 205.376,169.251 204.5,168.5C 204.833,168.167 205.167,167.833 205.5,167.5C 206.891,168.645 208.224,168.645 209.5,167.5C 210.145,166.268 210.311,164.935 210,163.5C 211.734,164.249 213.567,164.749 215.5,165C 216.319,170.426 219.319,171.926 224.5,169.5C 225.672,169.919 226.672,170.585 227.5,171.5C 228.795,170.902 230.128,170.402 231.5,170C 230.376,169.751 229.376,169.251 228.5,168.5C 229.167,168.167 229.833,167.833 230.5,167.5C 233.704,169.087 236.704,168.754 239.5,166.5C 241.588,168.889 244.255,170.555 247.5,171.5C 246.975,172.192 246.308,172.692 245.5,173C 246.646,173.645 247.646,174.478 248.5,175.5C 249.192,174.975 249.692,174.308 250,173.5C 250.75,174.126 251.584,174.626 252.5,175C 252.167,175.333 251.833,175.667 251.5,176C 254.993,177.566 257.16,180.066 258,183.5C 256.817,182.269 255.651,182.269 254.5,183.5C 255.246,184.736 255.579,186.07 255.5,187.5 Z"/></g>
<g><path style="opacity:1" fill="#fe787a" d="M 523.5,182.5 C 526.175,191.865 527.842,201.532 528.5,211.5C 524.395,211.234 520.395,211.734 516.5,213C 492.833,221.333 469.167,229.667 445.5,238C 440.844,239.706 436.51,241.873 432.5,244.5C 428.759,234.539 426.092,224.206 424.5,213.5C 423.167,213.5 421.833,213.5 420.5,213.5C 420.95,219.142 419.95,224.475 417.5,229.5C 390.155,225.131 362.988,219.798 336,213.5C 333.929,212.213 331.762,211.047 329.5,210C 323.436,209.805 317.436,209.139 311.5,208C 299.961,203.391 288.628,198.557 277.5,193.5C 278.999,192.322 279.999,190.655 280.5,188.5C 281.609,189.59 282.609,189.59 283.5,188.5C 282.167,187.833 280.833,187.167 279.5,186.5C 282.167,185.167 282.167,183.833 279.5,182.5C 283.351,181.695 287.184,182.028 291,183.5C 291.95,182.978 292.784,182.311 293.5,181.5C 300.593,184.368 307.926,186.702 315.5,188.5C 311.646,188.771 307.979,188.771 304.5,188.5C 307.691,189.923 311.024,190.923 314.5,191.5C 315.774,192.359 315.608,193.026 314,193.5C 310.814,192.607 307.648,192.107 304.5,192C 307.876,193.899 311.543,194.732 315.5,194.5C 315.215,196.288 315.548,197.955 316.5,199.5C 317.429,198.311 317.762,196.978 317.5,195.5C 323.016,196.336 328.516,197.336 334,198.5C 335.07,198.472 335.903,198.139 336.5,197.5C 349.139,213.04 364.806,216.874 383.5,209C 388.622,205.71 393.289,201.877 397.5,197.5C 397.586,198.496 397.252,199.329 396.5,200C 399.465,201.498 402.465,201.665 405.5,200.5C 404.529,199.038 404.862,197.705 406.5,196.5C 410.105,197.49 413.772,198.156 417.5,198.5C 417.36,200.124 418.027,201.29 419.5,202C 418.692,202.308 418.025,202.808 417.5,203.5C 419.246,204.395 421.08,205.062 423,205.5C 425.988,201.404 428.321,196.404 430,190.5C 436.083,190 442.25,190 448.5,190.5C 448.351,189.448 448.517,188.448 449,187.5C 451.069,188.264 453.236,188.764 455.5,189C 456.337,190.011 456.67,191.178 456.5,192.5C 462.828,192.793 468.161,194.127 472.5,196.5C 472.238,195.022 472.571,193.689 473.5,192.5C 475.271,191.965 475.604,191.131 474.5,190C 476.107,190.019 477.774,190.185 479.5,190.5C 479.5,189.167 479.5,187.833 479.5,186.5C 483.311,186.404 483.311,185.738 479.5,184.5C 480.948,183.646 482.281,182.646 483.5,181.5C 484.086,181.709 484.586,182.043 485,182.5C 485.402,181.128 485.902,179.795 486.5,178.5C 491.721,177.376 491.721,176.542 486.5,176C 490.043,175.551 493.043,174.051 495.5,171.5C 501.868,172.727 508.201,174.061 514.5,175.5C 515.192,174.975 515.692,174.308 516,173.5C 516.953,175.592 518.286,175.925 520,174.5C 520.322,177.666 521.489,180.333 523.5,182.5 Z"/></g>
<g><path style="opacity:1" fill="#ff8886" d="M 401.5,166.5 C 403.135,170.926 403.635,175.593 403,180.5C 401.859,186.423 400.025,192.09 397.5,197.5C 393.289,201.877 388.622,205.71 383.5,209C 364.806,216.874 349.139,213.04 336.5,197.5C 335.773,195.046 334.773,192.713 333.5,190.5C 335.042,189.699 336.708,189.366 338.5,189.5C 338.5,187.833 338.5,186.167 338.5,184.5C 340.331,185.052 341.997,185.052 343.5,184.5C 342.456,182.232 342.289,179.899 343,177.5C 344.833,191.667 352.833,199.334 367,200.5C 385.682,197.294 393.182,186.294 389.5,167.5C 391.262,167.357 392.929,167.691 394.5,168.5C 395.159,171.824 397.159,173.157 400.5,172.5C 400.833,170.5 401.167,168.5 401.5,166.5 Z"/></g>
<g><path style="opacity:1" fill="#ed305a" d="M 160.5,197.5 C 161.239,197.369 161.906,197.536 162.5,198C 161.5,198.333 160.5,198.667 159.5,199C 165.407,201.521 171.573,203.354 178,204.5C 183.986,202.167 190.153,201.334 196.5,202C 204.503,204.752 212.336,207.918 220,211.5C 220.772,211.355 221.439,211.022 222,210.5C 227.952,212.654 233.952,214.654 240,216.5C 241.667,216.5 243.333,216.5 245,216.5C 253.489,220.656 261.155,225.989 268,232.5C 268.346,234.218 268.846,235.885 269.5,237.5C 269.154,238.696 268.654,238.696 268,237.5C 266.632,238.993 266.465,240.493 267.5,242C 265.512,242.18 263.512,242.014 261.5,241.5C 261.33,242.822 261.663,243.989 262.5,245C 260.874,244.805 259.207,244.805 257.5,245C 258.056,245.383 258.389,245.883 258.5,246.5C 257.833,246.5 257.167,246.5 256.5,246.5C 252.37,243.597 248.037,240.93 243.5,238.5C 238.598,234.799 233.265,231.632 227.5,229C 221.395,229.031 215.395,229.698 209.5,231C 199.32,225.413 189.654,219.079 180.5,212C 174.859,208.902 168.859,207.902 162.5,209C 157.725,212.721 152.391,215.388 146.5,217C 134.48,218.788 122.48,220.622 110.5,222.5C 110.5,219.167 110.5,215.833 110.5,212.5C 110.342,209.098 110.676,205.764 111.5,202.5C 116.889,198.889 122.722,196.223 129,194.5C 132.969,195.399 136.802,196.732 140.5,198.5C 147.183,198.024 153.849,197.691 160.5,197.5 Z"/></g>
<g><path style="opacity:1" fill="#f25068" d="M 379.5,243.5 C 379.062,243.435 378.728,243.601 378.5,244C 380.595,244.556 380.762,245.056 379,245.5C 342.935,235.441 306.768,225.608 270.5,216C 266.241,215.201 262.575,213.368 259.5,210.5C 255.018,209.833 250.684,209.166 246.5,208.5C 258.232,208.097 269.899,207.264 281.5,206C 297.493,210.331 312.827,216.331 327.5,224C 344.816,230.824 362.149,237.324 379.5,243.5 Z"/></g>
<g><path style="opacity:1" fill="#bd205e" d="M 243.5,238.5 C 224.447,242.93 205.114,247.763 185.5,253C 176.793,252.806 168.293,254.306 160,257.5C 146.119,260.953 131.953,264.453 117.5,268C 116.833,268.333 116.167,268.667 115.5,269C 117.5,269.333 119.5,269.667 121.5,270C 118.621,270.957 116.121,270.457 114,268.5C 113.517,269.448 113.351,270.448 113.5,271.5C 111.775,264.06 110.608,256.393 110,248.5C 109.174,236.326 109.34,224.326 110.5,212.5C 110.5,215.833 110.5,219.167 110.5,222.5C 122.48,220.622 134.48,218.788 146.5,217C 152.391,215.388 157.725,212.721 162.5,209C 168.859,207.902 174.859,208.902 180.5,212C 189.654,219.079 199.32,225.413 209.5,231C 215.395,229.698 221.395,229.031 227.5,229C 233.265,231.632 238.598,234.799 243.5,238.5 Z"/></g>
<g><path style="opacity:1" fill="#fe7570" d="M 255.5,187.5 C 259.514,187.334 263.514,187.501 267.5,188C 270.727,190.112 274.06,191.945 277.5,193.5C 288.628,198.557 299.961,203.391 311.5,208C 317.436,209.139 323.436,209.805 329.5,210C 331.762,211.047 333.929,212.213 336,213.5C 362.988,219.798 390.155,225.131 417.5,229.5C 415.068,238.137 412.068,246.47 408.5,254.5C 407.833,254.5 407.167,254.5 406.5,254.5C 397.817,250.267 388.817,246.6 379.5,243.5C 362.149,237.324 344.816,230.824 327.5,224C 312.827,216.331 297.493,210.331 281.5,206C 269.899,207.264 258.232,208.097 246.5,208.5C 237.806,205.786 229.806,201.786 222.5,196.5C 230.297,194.512 237.964,192.012 245.5,189C 248.793,188.174 252.126,187.674 255.5,187.5 Z"/></g>
<g><path style="opacity:1" fill="#951d64" d="M 528.5,211.5 C 530.324,231.613 529.324,251.613 525.5,271.5C 496.662,271.169 467.995,271.502 439.5,272.5C 436.566,263.432 434.233,254.098 432.5,244.5C 436.51,241.873 440.844,239.706 445.5,238C 469.167,229.667 492.833,221.333 516.5,213C 520.395,211.734 524.395,211.234 528.5,211.5 Z"/></g>
<g><path style="opacity:1" fill="#f04061" d="M 222.5,196.5 C 229.806,201.786 237.806,205.786 246.5,208.5C 250.684,209.166 255.018,209.833 259.5,210.5C 262.575,213.368 266.241,215.201 270.5,216C 306.768,225.608 342.935,235.441 379,245.5C 380.762,245.056 380.595,244.556 378.5,244C 378.728,243.601 379.062,243.435 379.5,243.5C 388.817,246.6 397.817,250.267 406.5,254.5C 403.262,255.633 399.929,256.467 396.5,257C 372.251,258.153 348.584,262.32 325.5,269.5C 316.232,266.244 306.899,263.077 297.5,260C 291.821,259.802 286.155,259.802 280.5,260C 272.731,256.033 265.397,251.533 258.5,246.5C 258.389,245.883 258.056,245.383 257.5,245C 259.207,244.805 260.874,244.805 262.5,245C 261.663,243.989 261.33,242.822 261.5,241.5C 263.512,242.014 265.512,242.18 267.5,242C 266.465,240.493 266.632,238.993 268,237.5C 268.654,238.696 269.154,238.696 269.5,237.5C 268.846,235.885 268.346,234.218 268,232.5C 261.155,225.989 253.489,220.656 245,216.5C 243.333,216.5 241.667,216.5 240,216.5C 233.952,214.654 227.952,212.654 222,210.5C 221.439,211.022 220.772,211.355 220,211.5C 212.336,207.918 204.503,204.752 196.5,202C 190.153,201.334 183.986,202.167 178,204.5C 171.573,203.354 165.407,201.521 159.5,199C 160.5,198.667 161.5,198.333 162.5,198C 161.906,197.536 161.239,197.369 160.5,197.5C 169.805,194.01 178.471,189.176 186.5,183C 191.292,180.968 195.959,181.301 200.5,184C 207.726,188.444 215.059,192.61 222.5,196.5 Z"/></g>
<g><path style="opacity:1" fill="#c3265e" d="M 243.5,238.5 C 248.037,240.93 252.37,243.597 256.5,246.5C 255.668,247.329 256.001,248.162 257.5,249C 244.714,252.781 231.714,255.447 218.5,257C 205.749,259.982 193.083,263.148 180.5,266.5C 179.393,265.978 178.226,265.645 177,265.5C 172.148,266.588 167.315,267.755 162.5,269C 165.167,269.333 167.833,269.667 170.5,270C 158.659,270.169 146.993,270.669 135.5,271.5C 132.858,272.853 130.024,273.519 127,273.5C 122.521,272.836 118.021,272.502 113.5,272.5C 113.5,272.167 113.5,271.833 113.5,271.5C 113.351,270.448 113.517,269.448 114,268.5C 116.121,270.457 118.621,270.957 121.5,270C 119.5,269.667 117.5,269.333 115.5,269C 116.167,268.667 116.833,268.333 117.5,268C 131.953,264.453 146.119,260.953 160,257.5C 168.293,254.306 176.793,252.806 185.5,253C 205.114,247.763 224.447,242.93 243.5,238.5 Z"/></g>
<g><path style="opacity:1" fill="#cd2f60" d="M 256.5,246.5 C 257.167,246.5 257.833,246.5 258.5,246.5C 265.397,251.533 272.731,256.033 280.5,260C 286.155,259.802 291.821,259.802 297.5,260C 306.899,263.077 316.232,266.244 325.5,269.5C 324.329,270.345 322.995,271.011 321.5,271.5C 259.833,271.5 198.167,271.5 136.5,271.5C 136.167,271.5 135.833,271.5 135.5,271.5C 146.993,270.669 158.659,270.169 170.5,270C 167.833,269.667 165.167,269.333 162.5,269C 167.315,267.755 172.148,266.588 177,265.5C 178.226,265.645 179.393,265.978 180.5,266.5C 193.083,263.148 205.749,259.982 218.5,257C 231.714,255.447 244.714,252.781 257.5,249C 256.001,248.162 255.668,247.329 256.5,246.5 Z"/></g>
<g><path style="opacity:1" fill="#992468" d="M 406.5,254.5 C 407.167,254.5 407.833,254.5 408.5,254.5C 407.133,260.24 405.466,265.907 403.5,271.5C 375.945,271.531 348.612,271.531 321.5,271.5C 322.995,271.011 324.329,270.345 325.5,269.5C 348.584,262.32 372.251,258.153 396.5,257C 399.929,256.467 403.262,255.633 406.5,254.5 Z"/></g>
<g><path style="opacity:1" fill="#a11e5d" d="M 136.5,272.5 C 136.5,272.167 136.5,271.833 136.5,271.5C 198.167,271.5 259.833,271.5 321.5,271.5C 348.612,271.531 375.945,271.531 403.5,271.5C 403.672,272.492 403.338,273.158 402.5,273.5C 313.763,273.831 225.096,273.497 136.5,272.5 Z"/></g>
<g><path style="opacity:1" fill="#9f1b5c" d="M 525.5,271.5 C 525.5,272.167 525.5,272.833 525.5,273.5C 496.833,273.5 468.167,273.5 439.5,273.5C 439.5,273.167 439.5,272.833 439.5,272.5C 467.995,271.502 496.662,271.169 525.5,271.5 Z"/></g>
<g><path style="opacity:1" fill="#660853" d="M 135.5,271.5 C 135.833,271.5 136.167,271.5 136.5,271.5C 136.5,271.833 136.5,272.167 136.5,272.5C 136.414,273.496 136.748,274.329 137.5,275C 141.754,275.642 145.754,276.809 149.5,278.5C 151.117,279.038 152.784,279.371 154.5,279.5C 154.56,280.043 154.893,280.376 155.5,280.5C 156.251,279.624 156.751,278.624 157,277.5C 158.088,281.919 160.255,282.586 163.5,279.5C 164.5,279.5 165.5,279.5 166.5,279.5C 166.22,282.388 167.553,283.888 170.5,284C 178.732,285.877 187.065,286.71 195.5,286.5C 196.167,286.5 196.833,286.5 197.5,286.5C 198.167,286.5 198.833,286.5 199.5,286.5C 200.167,286.5 200.833,286.5 201.5,286.5C 202.807,285.847 204.14,285.18 205.5,284.5C 209.221,287.404 213.054,287.737 217,285.5C 218.188,286.563 218.688,287.897 218.5,289.5C 222.139,288.84 225.472,287.506 228.5,285.5C 228.332,290.325 230.332,291.992 234.5,290.5C 235.149,291.606 235.483,292.606 235.5,293.5C 236.329,288.198 236.829,282.864 237,277.5C 237.499,283.491 237.666,289.491 237.5,295.5C 239.292,295.366 240.958,295.699 242.5,296.5C 244.785,297.546 247.118,297.546 249.5,296.5C 249.45,298.59 250.45,299.923 252.5,300.5C 254.816,298.506 257.482,297.506 260.5,297.5C 260.452,300.292 261.785,302.125 264.5,303C 266.473,303.495 268.473,303.662 270.5,303.5C 272.969,304.317 275.635,304.817 278.5,305C 279.984,305.662 281.317,306.496 282.5,307.5C 288.687,309.237 295.021,310.404 301.5,311C 304.818,315.111 309.151,316.611 314.5,315.5C 316.979,316.623 319.312,316.623 321.5,315.5C 322.529,312.112 324.529,309.445 327.5,307.5C 331.953,308.924 333.62,311.757 332.5,316C 335.5,316.667 338.5,316.667 341.5,316C 342.088,312.985 343.755,310.818 346.5,309.5C 349.535,311.227 352.201,313.227 354.5,315.5C 356.435,316.15 358.435,316.483 360.5,316.5C 368.837,319.491 377.504,321.491 386.5,322.5C 388.167,323.167 389.833,323.833 391.5,324.5C 387.833,325.167 384.167,325.833 380.5,326.5C 314.5,326.5 248.5,326.5 182.5,326.5C 185.287,325.523 188.287,325.19 191.5,325.5C 254.168,325.667 316.834,325.5 379.5,325C 334.799,322.953 290.132,320.287 245.5,317C 223.163,316.459 200.83,315.793 178.5,315C 166.5,312 154.5,309 142.5,306C 135.842,305.5 129.175,305.334 122.5,305.5C 118.721,294.719 115.721,283.719 113.5,272.5C 118.021,272.502 122.521,272.836 127,273.5C 130.024,273.519 132.858,272.853 135.5,271.5 Z"/></g>
<g><path style="opacity:1" fill="#82155e" d="M 136.5,272.5 C 225.096,273.497 313.763,273.831 402.5,273.5C 402.204,275.403 401.537,277.07 400.5,278.5C 387.344,277.504 374.01,277.171 360.5,277.5C 360.5,290.5 360.5,303.5 360.5,316.5C 358.435,316.483 356.435,316.15 354.5,315.5C 354.5,302.833 354.5,290.167 354.5,277.5C 343.167,277.5 331.833,277.5 320.5,277.5C 320.171,290.344 320.505,303.011 321.5,315.5C 319.312,316.623 316.979,316.623 314.5,315.5C 314.5,302.833 314.5,290.167 314.5,277.5C 303.673,276.414 293.006,276.414 282.5,277.5C 282.317,287.304 282.317,297.304 282.5,307.5C 281.317,306.496 279.984,305.662 278.5,305C 275.635,304.817 272.969,304.317 270.5,303.5C 272.167,303.5 273.833,303.5 275.5,303.5C 275.5,297.167 275.5,290.833 275.5,284.5C 275.5,282.167 275.5,279.833 275.5,277.5C 264.5,277.5 253.5,277.5 242.5,277.5C 241.324,283.683 241.324,290.017 242.5,296.5C 240.958,295.699 239.292,295.366 237.5,295.5C 237.666,289.491 237.499,283.491 237,277.5C 236.829,282.864 236.329,288.198 235.5,293.5C 235.483,292.606 235.149,291.606 234.5,290.5C 235.485,286.366 235.818,282.032 235.5,277.5C 224.167,277.5 212.833,277.5 201.5,277.5C 201.5,280.5 201.5,283.5 201.5,286.5C 200.833,286.5 200.167,286.5 199.5,286.5C 198.833,274.5 198.167,274.5 197.5,286.5C 196.833,286.5 196.167,286.5 195.5,286.5C 195.5,283.5 195.5,280.5 195.5,277.5C 184.147,277.168 172.814,277.501 161.5,278.5C 161.957,279.298 162.624,279.631 163.5,279.5C 160.255,282.586 158.088,281.919 157,277.5C 156.751,278.624 156.251,279.624 155.5,280.5C 154.893,280.376 154.56,280.043 154.5,279.5C 155.043,279.44 155.376,279.107 155.5,278.5C 153.364,277.207 151.364,277.207 149.5,278.5C 145.754,276.809 141.754,275.642 137.5,275C 136.748,274.329 136.414,273.496 136.5,272.5 Z"/></g>
<g><path style="opacity:1" fill="#370647" d="M 432.5,244.5 C 434.233,254.098 436.566,263.432 439.5,272.5C 439.5,272.833 439.5,273.167 439.5,273.5C 440.048,275.626 440.715,277.626 441.5,279.5C 444.192,290.935 447.192,302.269 450.5,313.5C 450.833,315.5 451.167,317.5 451.5,319.5C 444.504,319.894 437.504,320.227 430.5,320.5C 430.5,321.833 430.5,323.167 430.5,324.5C 428.265,324.205 426.265,324.539 424.5,325.5C 424.5,326.5 424.5,327.5 424.5,328.5C 432.684,328.826 440.684,328.492 448.5,327.5C 449.158,326.602 449.824,325.602 450.5,324.5C 451.107,324.624 451.44,324.957 451.5,325.5C 451.5,326.5 451.5,327.5 451.5,328.5C 456.482,329.053 461.482,329.387 466.5,329.5C 466.833,330.5 467.5,331.167 468.5,331.5C 468.66,333.153 469.326,334.486 470.5,335.5C 443.67,336.664 416.67,336.83 389.5,336C 388.627,334.955 387.627,334.122 386.5,333.5C 384.5,331.167 382.5,328.833 380.5,326.5C 381.167,326.5 381.833,326.5 382.5,326.5C 383.812,328.479 385.479,330.145 387.5,331.5C 400.455,330.685 413.455,330.185 426.5,330C 414.317,329.563 402.317,328.73 390.5,327.5C 393.167,327.5 395.833,327.5 398.5,327.5C 406.243,328.13 413.576,327.463 420.5,325.5C 411.014,324.506 401.348,324.173 391.5,324.5C 389.833,323.833 388.167,323.167 386.5,322.5C 391.361,307.917 396.028,293.25 400.5,278.5C 401.537,277.07 402.204,275.403 402.5,273.5C 403.338,273.158 403.672,272.492 403.5,271.5C 405.466,265.907 407.133,260.24 408.5,254.5C 412.068,246.47 415.068,238.137 417.5,229.5C 419.95,224.475 420.95,219.142 420.5,213.5C 421.833,213.5 423.167,213.5 424.5,213.5C 426.092,224.206 428.759,234.539 432.5,244.5 Z"/></g>
<g><path style="opacity:1" fill="#5a0f53" d="M 428.5,249.5 C 428.657,250.873 428.49,252.207 428,253.5C 419.859,267.672 410.693,280.339 400.5,291.5C 406.977,269.235 414.144,247.235 422,225.5C 424.791,233.333 426.958,241.333 428.5,249.5 Z"/></g>
<g><path style="opacity:1" fill="#80125c" d="M 439.5,273.5 C 468.167,273.5 496.833,273.5 525.5,273.5C 524.766,274.708 524.433,276.041 524.5,277.5C 509.167,277.5 493.833,277.5 478.5,277.5C 478.5,289.167 478.5,300.833 478.5,312.5C 479.833,312.5 481.167,312.5 482.5,312.5C 479.038,313.482 475.371,313.815 471.5,313.5C 471.5,301.5 471.5,289.5 471.5,277.5C 461.111,276.859 451.111,277.526 441.5,279.5C 440.715,277.626 440.048,275.626 439.5,273.5 Z"/></g>
<g><path style="opacity:1" fill="#ce3260" d="M 149.5,278.5 C 151.364,277.207 153.364,277.207 155.5,278.5C 155.376,279.107 155.043,279.44 154.5,279.5C 152.784,279.371 151.117,279.038 149.5,278.5 Z"/></g>
<g><path style="opacity:1" fill="#951c64" d="M 471.5,313.5 C 464.5,313.5 457.5,313.5 450.5,313.5C 447.192,302.269 444.192,290.935 441.5,279.5C 451.111,277.526 461.111,276.859 471.5,277.5C 471.5,289.5 471.5,301.5 471.5,313.5 Z"/></g>
<g><path style="opacity:1" fill="#cf3662" d="M 195.5,286.5 C 187.065,286.71 178.732,285.877 170.5,284C 167.553,283.888 166.22,282.388 166.5,279.5C 165.5,279.5 164.5,279.5 163.5,279.5C 162.624,279.631 161.957,279.298 161.5,278.5C 172.814,277.501 184.147,277.168 195.5,277.5C 195.5,280.5 195.5,283.5 195.5,286.5 Z"/></g>
<g><path style="opacity:1" fill="#c33261" d="M 199.5,286.5 C 198.833,286.5 198.167,286.5 197.5,286.5C 198.167,274.5 198.833,274.5 199.5,286.5 Z"/></g>
<g><path style="opacity:1" fill="#d63d63" d="M 234.5,290.5 C 230.332,291.992 228.332,290.325 228.5,285.5C 225.472,287.506 222.139,288.84 218.5,289.5C 218.688,287.897 218.188,286.563 217,285.5C 213.054,287.737 209.221,287.404 205.5,284.5C 204.14,285.18 202.807,285.847 201.5,286.5C 201.5,283.5 201.5,280.5 201.5,277.5C 212.833,277.5 224.167,277.5 235.5,277.5C 235.818,282.032 235.485,286.366 234.5,290.5 Z"/></g>
<g><path style="opacity:1" fill="#951c63" d="M 314.5,315.5 C 309.151,316.611 304.818,315.111 301.5,311C 295.021,310.404 288.687,309.237 282.5,307.5C 282.317,297.304 282.317,287.304 282.5,277.5C 293.006,276.414 303.673,276.414 314.5,277.5C 314.5,290.167 314.5,302.833 314.5,315.5 Z"/></g>
<g><path style="opacity:1" fill="#df3e61" d="M 282.5,277.5 C 289.841,277.334 297.174,277.5 304.5,278C 297.145,279.506 289.812,281.006 282.5,282.5C 282.5,280.833 282.5,279.167 282.5,277.5 Z"/></g>
<g><path style="opacity:1" fill="#951c64" d="M 524.5,277.5 C 522.151,288.544 518.817,299.211 514.5,309.5C 504.054,312.19 493.387,313.19 482.5,312.5C 481.167,312.5 479.833,312.5 478.5,312.5C 478.5,300.833 478.5,289.167 478.5,277.5C 493.833,277.5 509.167,277.5 524.5,277.5 Z"/></g>
<g><path style="opacity:1" fill="#da4063" d="M 242.5,277.5 C 253.5,277.5 264.5,277.5 275.5,277.5C 275.5,279.833 275.5,282.167 275.5,284.5C 264.574,287.155 253.574,289.488 242.5,291.5C 242.5,286.833 242.5,282.167 242.5,277.5 Z"/></g>
<g><path style="opacity:1" fill="#961c63" d="M 242.5,277.5 C 242.5,282.167 242.5,286.833 242.5,291.5C 253.574,289.488 264.574,287.155 275.5,284.5C 275.5,290.833 275.5,297.167 275.5,303.5C 273.833,303.5 272.167,303.5 270.5,303.5C 268.473,303.662 266.473,303.495 264.5,303C 261.785,302.125 260.452,300.292 260.5,297.5C 257.482,297.506 254.816,298.506 252.5,300.5C 250.45,299.923 249.45,298.59 249.5,296.5C 247.118,297.546 244.785,297.546 242.5,296.5C 241.324,290.017 241.324,283.683 242.5,277.5 Z"/></g>
<g><path style="opacity:1" fill="#951d64" d="M 354.5,315.5 C 352.201,313.227 349.535,311.227 346.5,309.5C 343.755,310.818 342.088,312.985 341.5,316C 338.5,316.667 335.5,316.667 332.5,316C 333.62,311.757 331.953,308.924 327.5,307.5C 324.529,309.445 322.529,312.112 321.5,315.5C 320.505,303.011 320.171,290.344 320.5,277.5C 331.833,277.5 343.167,277.5 354.5,277.5C 354.5,290.167 354.5,302.833 354.5,315.5 Z"/></g>
<g><path style="opacity:1" fill="#47084c" d="M 428.5,249.5 C 429.609,251.586 430.276,253.92 430.5,256.5C 429.3,262.569 427.8,268.569 426,274.5C 415.55,288.287 405.883,302.621 397,317.5C 396.517,318.448 396.351,319.448 396.5,320.5C 394.326,320.92 392.326,320.92 390.5,320.5C 393.698,310.67 397.031,301.004 400.5,291.5C 410.693,280.339 419.859,267.672 428,253.5C 428.49,252.207 428.657,250.873 428.5,249.5 Z"/></g>
<g><path style="opacity:1" fill="#951e65" d="M 400.5,278.5 C 396.028,293.25 391.361,307.917 386.5,322.5C 377.504,321.491 368.837,319.491 360.5,316.5C 360.5,303.5 360.5,290.5 360.5,277.5C 374.01,277.171 387.344,277.504 400.5,278.5 Z"/></g>
<g><path style="opacity:1" fill="#4e044c" d="M 122.5,305.5 C 129.175,305.334 135.842,305.5 142.5,306C 154.5,309 166.5,312 178.5,315C 200.83,315.793 223.163,316.459 245.5,317C 290.132,320.287 334.799,322.953 379.5,325C 316.834,325.5 254.168,325.667 191.5,325.5C 184.27,324.614 176.937,324.948 169.5,326.5C 157.011,325.505 144.344,325.171 131.5,325.5C 127.987,319.135 124.987,312.468 122.5,305.5 Z"/></g>
<g><path style="opacity:1" fill="#640652" d="M 514.5,309.5 C 512.714,315.072 510.381,320.405 507.5,325.5C 488.833,325.5 470.167,325.5 451.5,325.5C 451.44,324.957 451.107,324.624 450.5,324.5C 449.824,325.602 449.158,326.602 448.5,327.5C 440.903,325.533 432.903,324.866 424.5,325.5C 426.265,324.539 428.265,324.205 430.5,324.5C 430.5,323.167 430.5,321.833 430.5,320.5C 437.504,320.227 444.504,319.894 451.5,319.5C 451.167,317.5 450.833,315.5 450.5,313.5C 457.5,313.5 464.5,313.5 471.5,313.5C 475.371,313.815 479.038,313.482 482.5,312.5C 493.387,313.19 504.054,312.19 514.5,309.5 Z"/></g>
<g><path style="opacity:1" fill="#913664" d="M 391.5,324.5 C 401.348,324.173 411.014,324.506 420.5,325.5C 411.494,325.334 402.494,325.5 393.5,326C 395.382,326.198 397.048,326.698 398.5,327.5C 395.833,327.5 393.167,327.5 390.5,327.5C 387.873,326.908 385.206,326.575 382.5,326.5C 381.833,326.5 381.167,326.5 380.5,326.5C 384.167,325.833 387.833,325.167 391.5,324.5 Z"/></g>
<g><path style="opacity:1" fill="#973967" d="M 131.5,325.5 C 144.344,325.171 157.011,325.505 169.5,326.5C 168.167,326.833 166.833,327.167 165.5,327.5C 154.5,326.167 143.5,326.167 132.5,327.5C 131.662,327.158 131.328,326.492 131.5,325.5 Z"/></g>
<g><path style="opacity:1" fill="#fcab94" d="M 451.5,325.5 C 470.167,325.5 488.833,325.5 507.5,325.5C 507.267,327.062 506.6,328.395 505.5,329.5C 492.5,329.5 479.5,329.5 466.5,329.5C 461.482,329.387 456.482,329.053 451.5,328.5C 451.5,327.5 451.5,326.5 451.5,325.5 Z"/></g>
<g><path style="opacity:1" fill="#fbb899" d="M 420.5,325.5 C 413.576,327.463 406.243,328.13 398.5,327.5C 397.048,326.698 395.382,326.198 393.5,326C 402.494,325.5 411.494,325.334 420.5,325.5 Z"/></g>
<g><path style="opacity:1" fill="#fdb699" d="M 424.5,325.5 C 432.903,324.866 440.903,325.533 448.5,327.5C 440.684,328.492 432.684,328.826 424.5,328.5C 424.5,327.5 424.5,326.5 424.5,325.5 Z"/></g>
<g><path style="opacity:1" fill="#fd8c88" d="M 171.5,328.5 C 172.568,327.566 173.901,327.232 175.5,327.5C 191.995,328.332 208.662,328.832 225.5,329C 207.456,329.807 189.456,329.64 171.5,328.5 Z"/></g>
<g><path style="opacity:1" fill="#feaa93" d="M 182.5,326.5 C 248.5,326.5 314.5,326.5 380.5,326.5C 382.5,328.833 384.5,331.167 386.5,333.5C 374.025,334.891 361.358,335.558 348.5,335.5C 336.004,335.89 323.504,336.223 311,336.5C 303.538,336.448 296.205,335.781 289,334.5C 247.111,336.151 205.277,337.151 163.5,337.5C 160.689,337.174 158.022,336.341 155.5,335C 160.284,331.44 165.617,329.273 171.5,328.5C 189.456,329.64 207.456,329.807 225.5,329C 208.662,328.832 191.995,328.332 175.5,327.5C 177.717,326.631 180.05,326.298 182.5,326.5 Z"/></g>
<g><path style="opacity:1" fill="#fcab93" d="M 165.5,327.5 C 160.204,328.315 155.537,330.481 151.5,334C 146.868,334.181 142.368,335.014 138,336.5C 135.665,333.835 133.832,330.835 132.5,327.5C 143.5,326.167 154.5,326.167 165.5,327.5 Z"/></g>
<g><path style="opacity:1" fill="#640852" d="M 382.5,326.5 C 385.206,326.575 387.873,326.908 390.5,327.5C 402.317,328.73 414.317,329.563 426.5,330C 413.455,330.185 400.455,330.685 387.5,331.5C 385.479,330.145 383.812,328.479 382.5,326.5 Z"/></g>
<g><path style="opacity:1" fill="#fc6773" d="M 466.5,329.5 C 479.5,329.5 492.5,329.5 505.5,329.5C 505.5,330.167 505.167,330.5 504.5,330.5C 492.322,330.172 480.322,330.505 468.5,331.5C 467.5,331.167 466.833,330.5 466.5,329.5 Z"/></g>
<g><path style="opacity:1" fill="#fe827f" d="M 275.5,330.5 C 303.185,330.172 330.851,330.672 358.5,332C 327.5,332.667 296.5,332.667 265.5,332C 269.025,331.821 272.359,331.321 275.5,330.5 Z"/></g>
<g><path style="opacity:1" fill="#fda792" d="M 504.5,330.5 C 504.008,332.819 503.008,334.819 501.5,336.5C 495.167,336.5 488.833,336.5 482.5,336.5C 478.5,336.167 474.5,335.833 470.5,335.5C 469.326,334.486 468.66,333.153 468.5,331.5C 480.322,330.505 492.322,330.172 504.5,330.5 Z"/></g>
<g><path style="opacity:1" fill="#fb6e77" d="M 386.5,333.5 C 387.627,334.122 388.627,334.955 389.5,336C 416.67,336.83 443.67,336.664 470.5,335.5C 474.5,335.833 478.5,336.167 482.5,336.5C 472.344,337.617 462.01,338.45 451.5,339C 458.668,339.037 465.668,339.704 472.5,341C 460.833,341.333 449.167,341.667 437.5,342C 438.167,342.333 438.833,342.667 439.5,343C 424.506,342.968 409.506,342.635 394.5,342C 408.5,341.667 422.5,341.333 436.5,341C 415.5,340.667 394.5,340.333 373.5,340C 381.858,339.624 390.191,338.957 398.5,338C 381.646,337.755 364.98,336.921 348.5,335.5C 361.358,335.558 374.025,334.891 386.5,333.5 Z"/></g>
<g><path style="opacity:1" fill="#f98886" d="M 348.5,335.5 C 364.98,336.921 381.646,337.755 398.5,338C 390.191,338.957 381.858,339.624 373.5,340C 394.5,340.333 415.5,340.667 436.5,341C 422.5,341.333 408.5,341.667 394.5,342C 409.506,342.635 424.506,342.968 439.5,343C 438.833,342.667 438.167,342.333 437.5,342C 449.167,341.667 460.833,341.333 472.5,341C 465.668,339.704 458.668,339.037 451.5,339C 462.01,338.45 472.344,337.617 482.5,336.5C 488.833,336.5 495.167,336.5 501.5,336.5C 496.099,346.291 489.933,355.624 483,364.5C 479.951,365.61 476.784,366.277 473.5,366.5C 473.779,363.882 474.446,361.382 475.5,359C 474.929,357.795 474.262,356.628 473.5,355.5C 473.129,358.861 472.796,362.528 472.5,366.5C 471.167,366.5 469.833,366.5 468.5,366.5C 458.207,362.87 448.54,364.37 439.5,371C 436.905,371.226 434.405,371.726 432,372.5C 431.837,370.613 432.671,369.113 434.5,368C 437.718,365.223 441.385,363.223 445.5,362C 453.587,361.407 461.587,361.74 469.5,363C 460.74,359.218 451.74,358.218 442.5,360C 438.905,361.713 435.405,363.547 432,365.5C 429.165,364.767 426.332,364.1 423.5,363.5C 424.23,362.288 425.23,361.288 426.5,360.5C 424.671,359.718 423.171,360.384 422,362.5C 421.275,360.842 420.108,360.342 418.5,361C 419.252,361.671 419.586,362.504 419.5,363.5C 413.537,363.814 408.204,365.814 403.5,369.5C 399.298,369.817 395.298,369.483 391.5,368.5C 395.579,365.413 400.246,363.58 405.5,363C 396.529,361.819 389.529,364.986 384.5,372.5C 382.796,370.959 380.963,369.625 379,368.5C 377.527,368.903 376.194,369.57 375,370.5C 376.026,364.224 379.86,361.724 386.5,363C 384.744,362.798 383.078,362.298 381.5,361.5C 385.47,360.804 389.47,360.637 393.5,361C 391.212,360.178 388.878,359.511 386.5,359C 390.167,358.667 393.833,358.333 397.5,358C 390.055,355.629 383.055,356.629 376.5,361C 374.421,361.808 372.421,361.641 370.5,360.5C 372.754,358.081 375.421,356.248 378.5,355C 384.538,354.529 390.538,354.529 396.5,355C 387.492,351.246 378.825,351.746 370.5,356.5C 369.791,355.596 368.791,355.263 367.5,355.5C 367.328,353.508 367.995,351.842 369.5,350.5C 367.604,349.534 365.604,349.201 363.5,349.5C 363.561,351.592 364.561,353.092 366.5,354C 366.272,354.399 365.938,354.565 365.5,354.5C 355.512,352.991 347.846,356.658 342.5,365.5C 341.391,365.443 340.391,365.11 339.5,364.5C 338.503,364.53 337.836,364.03 337.5,363C 338.479,360.567 339.145,358.067 339.5,355.5C 340.473,355.013 341.473,354.513 342.5,354C 340.901,352.214 340.067,350.047 340,347.5C 336.793,344.85 336.293,345.016 338.5,348C 337.692,348.308 337.025,348.808 336.5,349.5C 337.853,350.524 338.52,351.857 338.5,353.5C 337.833,356.833 337.167,360.167 336.5,363.5C 332.003,364.055 327.836,363.389 324,361.5C 323.692,362.308 323.192,362.975 322.5,363.5C 315.705,360.741 309.038,361.074 302.5,364.5C 301.893,364.376 301.56,364.043 301.5,363.5C 301.5,362.5 301.5,361.5 301.5,360.5C 303.835,359.335 306.335,358.668 309,358.5C 312.528,359.264 316.028,359.764 319.5,360C 313.676,357.404 307.676,356.904 301.5,358.5C 300.548,356.955 300.215,355.288 300.5,353.5C 300.539,352.417 300.873,351.417 301.5,350.5C 300.833,350.167 300.167,349.833 299.5,349.5C 300.167,348.5 300.833,347.5 301.5,346.5C 299.72,347.345 297.72,347.345 295.5,346.5C 295.167,346.833 294.833,347.167 294.5,347.5C 295.628,348.262 296.795,348.929 298,349.5C 298.198,351.382 298.698,353.048 299.5,354.5C 299.896,357.044 299.229,359.211 297.5,361C 295.038,363.536 292.038,365.036 288.5,365.5C 287.013,360.343 286.347,360.676 286.5,366.5C 282.389,367.595 278.722,369.595 275.5,372.5C 273.143,366.461 274.81,361.961 280.5,359C 282.74,358.023 285.073,357.523 287.5,357.5C 287.833,361.5 288.167,361.5 288.5,357.5C 290.819,358.167 293.153,358.334 295.5,358C 293.323,356.798 290.989,356.298 288.5,356.5C 288.506,352.366 288.839,348.533 289.5,345C 288.953,344.075 288.287,343.242 287.5,342.5C 287.406,346.887 287.406,351.554 287.5,356.5C 284.833,356.5 282.167,356.5 279.5,356.5C 277.673,355.068 276.006,353.401 274.5,351.5C 273.056,352.981 272.389,352.648 272.5,350.5C 273.818,349.243 275.151,347.909 276.5,346.5C 275.675,345.614 274.675,345.281 273.5,345.5C 273.377,349.821 271.877,350.488 269,347.5C 268.167,347.833 267.333,348.167 266.5,348.5C 268.23,348.167 269.897,348.834 271.5,350.5C 264.083,353.692 256.416,356.692 248.5,359.5C 249.815,356.588 250.982,353.588 252,350.5C 252.925,349.953 253.758,349.287 254.5,348.5C 253.833,348.167 253.167,347.833 252.5,347.5C 253.833,346.5 255.167,345.5 256.5,344.5C 255.132,343.406 253.965,343.74 253,345.5C 251.006,342.916 250.506,343.082 251.5,346C 250.261,350.547 248.928,355.047 247.5,359.5C 243.257,358.258 238.924,357.258 234.5,356.5C 235.246,355.264 235.579,353.93 235.5,352.5C 236.675,352.719 237.675,352.386 238.5,351.5C 237.738,351.089 236.738,350.923 235.5,351C 236.056,350.617 236.389,350.117 236.5,349.5C 238.735,348.484 238.735,347.151 236.5,345.5C 238.198,341.507 237.532,340.84 234.5,343.5C 235.981,344.944 235.648,345.611 233.5,345.5C 234.234,346.708 234.567,348.041 234.5,349.5C 234.768,351.099 234.434,352.432 233.5,353.5C 233.672,352.508 233.338,351.842 232.5,351.5C 231.833,348.833 231.167,348.833 230.5,351.5C 221.749,351.803 213.082,351.47 204.5,350.5C 209.406,347.942 214.739,346.442 220.5,346C 215.372,345.292 210.372,345.792 205.5,347.5C 203.353,346.068 203.02,344.235 204.5,342C 202.854,340.599 201.187,340.432 199.5,341.5C 200.025,342.192 200.692,342.692 201.5,343C 200.333,343.5 199.5,344.333 199,345.5C 198.617,344.944 198.117,344.611 197.5,344.5C 188.315,339.08 178.482,337.413 168,339.5C 166.124,339.475 164.624,338.809 163.5,337.5C 205.277,337.151 247.111,336.151 289,334.5C 296.205,335.781 303.538,336.448 311,336.5C 323.504,336.223 336.004,335.89 348.5,335.5 Z"/></g>
<g><path style="opacity:1" fill="#3b0f47" d="M 269.5,338.5 C 271.465,338.948 271.798,339.948 270.5,341.5C 269.614,340.675 269.281,339.675 269.5,338.5 Z"/></g>
<g><path style="opacity:1" fill="#f38282" d="M 150.5,337.5 C 155.336,337.667 160.003,338.667 164.5,340.5C 163.975,341.192 163.308,341.692 162.5,342C 157.018,342.066 151.684,342.899 146.5,344.5C 145.479,343.998 145.312,343.332 146,342.5C 147.707,340.963 149.207,339.296 150.5,337.5 Z"/></g>
<g><path style="opacity:1" fill="#381345" d="M 231.5,339.5 C 233.337,339.639 233.67,340.306 232.5,341.5C 231.702,341.043 231.369,340.376 231.5,339.5 Z"/></g>
<g><path style="opacity:1" fill="#ea7e80" d="M 144.5,337.5 C 145.376,337.369 146.043,337.702 146.5,338.5C 144.605,339.973 142.939,341.64 141.5,343.5C 140.585,342.672 139.919,341.672 139.5,340.5C 140.947,339.065 142.614,338.065 144.5,337.5 Z"/></g>
<g><path style="opacity:1" fill="#b15970" d="M 205.5,347.5 C 204.329,348.345 202.995,349.011 201.5,349.5C 199.915,348.467 198.581,347.134 197.5,345.5C 197.5,345.167 197.5,344.833 197.5,344.5C 198.117,344.611 198.617,344.944 199,345.5C 199.5,344.333 200.333,343.5 201.5,343C 200.692,342.692 200.025,342.192 199.5,341.5C 201.187,340.432 202.854,340.599 204.5,342C 203.02,344.235 203.353,346.068 205.5,347.5 Z"/></g>
<g><path style="opacity:1" fill="#fe6470" d="M 292.5,343.5 C 315.69,342.095 339.024,342.261 362.5,344C 339.176,343.767 315.842,343.6 292.5,343.5 Z"/></g>
<g><path style="opacity:1" fill="#f58c88" d="M 197.5,345.5 C 198.581,347.134 199.915,348.467 201.5,349.5C 197.83,352.063 193.83,354.063 189.5,355.5C 187.518,354.438 185.685,353.105 184,351.5C 179.251,352.305 174.418,352.805 169.5,353C 166.056,354.802 162.889,356.969 160,359.5C 155.786,357.829 155.619,356.162 159.5,354.5C 158.833,353.833 158.167,353.167 157.5,352.5C 156.471,350.847 156.971,349.514 159,348.5C 161.05,349.791 163.217,350.291 165.5,350C 163.668,349.252 162.001,348.252 160.5,347C 161.609,346.362 162.775,345.862 164,345.5C 167.816,346.781 171.65,347.614 175.5,348C 172.583,346.472 169.583,345.139 166.5,344C 171.939,341.629 177.606,340.963 183.5,342C 188.265,342.858 192.931,344.024 197.5,345.5 Z"/></g>
<g><path style="opacity:1" fill="#2b0d3f" d="M 264.5,342.5 C 266.337,342.639 266.67,343.306 265.5,344.5C 264.702,344.043 264.369,343.376 264.5,342.5 Z"/></g>
<g><path style="opacity:1" fill="#6c2f54" d="M 233.5,345.5 C 231.663,345.361 231.33,344.694 232.5,343.5C 233.298,343.957 233.631,344.624 233.5,345.5 Z"/></g>
<g><path style="opacity:1" fill="#a24c6a" d="M 236.5,349.5 C 236.062,348.494 235.396,348.494 234.5,349.5C 234.567,348.041 234.234,346.708 233.5,345.5C 235.648,345.611 235.981,344.944 234.5,343.5C 237.532,340.84 238.198,341.507 236.5,345.5C 238.735,347.151 238.735,348.484 236.5,349.5 Z"/></g>
<g><path style="opacity:1" fill="#612852" d="M 239.5,345.5 C 241.337,345.639 241.67,346.306 240.5,347.5C 239.702,347.043 239.369,346.376 239.5,345.5 Z"/></g>
<g><path style="opacity:1" fill="#431b44" d="M 284.5,345.5 C 286.76,346.238 286.927,347.238 285,348.5C 283.272,347.648 283.105,346.648 284.5,345.5 Z"/></g>
<g><path style="opacity:1" fill="#ec8e89" d="M 146.5,348.5 C 148.628,347.371 150.961,347.204 153.5,348C 151.333,349.723 149,349.89 146.5,348.5 Z"/></g>
<g><path style="opacity:1" fill="#280241" d="M 247.5,346.5 C 249.337,346.639 249.67,347.306 248.5,348.5C 247.702,348.043 247.369,347.376 247.5,346.5 Z"/></g>
<g><path style="opacity:1" fill="#a14b69" d="M 300.5,353.5 C 299.833,353.5 299.5,353.833 299.5,354.5C 298.698,353.048 298.198,351.382 298,349.5C 296.795,348.929 295.628,348.262 294.5,347.5C 294.833,347.167 295.167,346.833 295.5,346.5C 297.72,347.345 299.72,347.345 301.5,346.5C 300.833,347.5 300.167,348.5 299.5,349.5C 300.167,349.833 300.833,350.167 301.5,350.5C 300.873,351.417 300.539,352.417 300.5,353.5 Z"/></g>
<g><path style="opacity:1" fill="#2e0b42" d="M 476.5,346.5 C 478.973,346.947 479.14,347.947 477,349.5C 476.517,348.552 476.351,347.552 476.5,346.5 Z"/></g>
<g><path style="opacity:1" fill="#8d4062" d="M 272.5,350.5 C 272.167,350.5 271.833,350.5 271.5,350.5C 269.897,348.834 268.23,348.167 266.5,348.5C 267.333,348.167 268.167,347.833 269,347.5C 271.877,350.488 273.377,349.821 273.5,345.5C 274.675,345.281 275.675,345.614 276.5,346.5C 275.151,347.909 273.818,349.243 272.5,350.5 Z"/></g>
<g><path style="opacity:1" fill="#ad556d" d="M 339.5,355.5 C 339.672,354.508 339.338,353.842 338.5,353.5C 338.52,351.857 337.853,350.524 336.5,349.5C 337.025,348.808 337.692,348.308 338.5,348C 336.293,345.016 336.793,344.85 340,347.5C 340.067,350.047 340.901,352.214 342.5,354C 341.473,354.513 340.473,355.013 339.5,355.5 Z"/></g>
<g><path style="opacity:1" fill="#59244e" d="M 470.5,348.5 C 472.337,348.639 472.67,349.306 471.5,350.5C 470.702,350.043 470.369,349.376 470.5,348.5 Z"/></g>
<g><path style="opacity:1" fill="#14003a" d="M 232.5,351.5 C 231.833,351.5 231.167,351.5 230.5,351.5C 231.167,348.833 231.833,348.833 232.5,351.5 Z"/></g>
<g><path style="opacity:1" fill="#531d4f" d="M 295.5,350.5 C 297.337,350.639 297.67,351.306 296.5,352.5C 295.702,352.043 295.369,351.376 295.5,350.5 Z"/></g>
<g><path style="opacity:1" fill="#632455" d="M 248.5,359.5 C 248.167,359.5 247.833,359.5 247.5,359.5C 248.928,355.047 250.261,350.547 251.5,346C 250.506,343.082 251.006,342.916 253,345.5C 253.965,343.74 255.132,343.406 256.5,344.5C 255.167,345.5 253.833,346.5 252.5,347.5C 253.167,347.833 253.833,348.167 254.5,348.5C 253.758,349.287 252.925,349.953 252,350.5C 250.982,353.588 249.815,356.588 248.5,359.5 Z"/></g>
<g><path style="opacity:1" fill="#faab94" d="M 204.5,350.5 C 213.082,351.47 221.749,351.803 230.5,351.5C 231.167,351.5 231.833,351.5 232.5,351.5C 233.338,351.842 233.672,352.508 233.5,353.5C 233.631,354.376 233.298,355.043 232.5,355.5C 225.936,351.626 219.436,351.626 213,355.5C 210.345,353.947 207.512,352.78 204.5,352C 203.262,351.31 203.262,350.81 204.5,350.5 Z"/></g>
<g><path style="opacity:1" fill="#18073b" d="M 421.5,351.5 C 423.337,351.639 423.67,352.306 422.5,353.5C 421.702,353.043 421.369,352.376 421.5,351.5 Z"/></g>
<g><path style="opacity:1" fill="#f6988e" d="M 157.5,352.5 C 158.167,353.167 158.833,353.833 159.5,354.5C 157.856,354.286 156.356,354.62 155,355.5C 153.392,353.233 154.225,352.233 157.5,352.5 Z"/></g>
<g><path style="opacity:1" fill="#763459" d="M 325.5,353.5 C 327.337,353.639 327.67,354.306 326.5,355.5C 325.702,355.043 325.369,354.376 325.5,353.5 Z"/></g>
<g><path style="opacity:1" fill="#602753" d="M 335.5,352.5 C 337.337,352.639 337.67,353.306 336.5,354.5C 335.702,354.043 335.369,353.376 335.5,352.5 Z"/></g>
<g><path style="opacity:1" fill="#3c0848" d="M 469.5,353.5 C 471.337,353.639 471.67,354.306 470.5,355.5C 469.702,355.043 469.369,354.376 469.5,353.5 Z"/></g>
<g><path style="opacity:1" fill="#f38886" d="M 189.5,355.5 C 189.294,357.549 188.461,357.883 187,356.5C 186.508,357.549 186.674,358.549 187.5,359.5C 186.502,362.028 185.669,362.028 185,359.5C 178.483,361.744 171.816,363.744 165,365.5C 163.978,364.646 163.145,363.646 162.5,362.5C 167.155,355.059 173.321,353.059 181,356.5C 181.519,355.484 182.353,354.818 183.5,354.5C 185.453,355.156 187.453,355.489 189.5,355.5 Z"/></g>
<g><path style="opacity:1" fill="#f58987" d="M 264.5,354.5 C 267.167,354.5 269.833,354.5 272.5,354.5C 272.232,357.119 272.565,359.619 273.5,362C 270.167,362.667 266.833,362.667 263.5,362C 259.565,359.012 259.898,356.512 264.5,354.5 Z"/></g>
<g><path style="opacity:1" fill="#51204c" d="M 415.5,354.5 C 417.337,354.639 417.67,355.306 416.5,356.5C 415.702,356.043 415.369,355.376 415.5,354.5 Z"/></g>
<g><path style="opacity:1" fill="#d77b81" d="M 195.5,356.5 C 193.263,358.647 191.263,360.98 189.5,363.5C 188.697,362.577 188.53,361.577 189,360.5C 191,358.5 193,356.5 195,354.5C 195.464,355.094 195.631,355.761 195.5,356.5 Z"/></g>
<g><path style="opacity:1" fill="#f18b88" d="M 218.5,354.5 C 223.537,354.042 228.204,355.042 232.5,357.5C 225.622,357.884 218.622,358.384 211.5,359C 213.898,357.476 216.231,355.976 218.5,354.5 Z"/></g>
<g><path style="opacity:1" fill="#f38c88" d="M 279.5,356.5 C 278.258,358.25 276.758,359.917 275,361.5C 274.163,359.179 273.83,356.845 274,354.5C 275.725,355.464 277.559,356.131 279.5,356.5 Z"/></g>
<g><path style="opacity:1" fill="#b15d71" d="M 370.5,356.5 C 368.836,357.743 367.669,359.41 367,361.5C 366.841,359.657 366.341,358.991 365.5,359.5C 363.154,358.477 360.821,357.477 358.5,356.5C 360.833,355.833 363.167,355.167 365.5,354.5C 365.938,354.565 366.272,354.399 366.5,354C 364.561,353.092 363.561,351.592 363.5,349.5C 365.604,349.201 367.604,349.534 369.5,350.5C 367.995,351.842 367.328,353.508 367.5,355.5C 368.791,355.263 369.791,355.596 370.5,356.5 Z"/></g>
<g><path style="opacity:1" fill="#341346" d="M 415.5,358.5 C 417.337,358.639 417.67,359.306 416.5,360.5C 415.702,360.043 415.369,359.376 415.5,358.5 Z"/></g>
<g><path style="opacity:1" fill="#2f0f43" d="M 468.5,359.5 C 469.675,359.281 470.675,359.614 471.5,360.5C 469.948,361.798 468.948,361.465 468.5,359.5 Z"/></g>
<g><path style="opacity:1" fill="#3b0848" d="M 475.5,360.5 C 477.337,360.639 477.67,361.306 476.5,362.5C 475.702,362.043 475.369,361.376 475.5,360.5 Z"/></g>
<g><path style="opacity:1" fill="#ee978e" d="M 208.5,361.5 C 213.021,361.326 213.355,361.993 209.5,363.5C 208.702,363.043 208.369,362.376 208.5,361.5 Z"/></g>
<g><path style="opacity:1" fill="#944666" d="M 301.5,360.5 C 301.5,361.5 301.5,362.5 301.5,363.5C 296.338,364.036 296.338,363.036 301.5,360.5 Z"/></g>
<g><path style="opacity:1" fill="#f88c88" d="M 358.5,356.5 C 360.821,357.477 363.154,358.477 365.5,359.5C 365.719,360.675 365.386,361.675 364.5,362.5C 359.799,364.368 355.466,366.868 351.5,370C 343.122,371.31 341.622,368.81 347,362.5C 349.955,358.773 353.788,356.773 358.5,356.5 Z"/></g>
<g><path style="opacity:1" fill="#f28987" d="M 195.5,356.5 C 197.213,354.15 199.547,353.15 202.5,353.5C 202.833,361.5 203.167,361.5 203.5,353.5C 206.311,353.826 208.978,354.659 211.5,356C 209.209,359.719 205.876,361.385 201.5,361C 198.671,362.247 196.005,363.747 193.5,365.5C 193.167,365 192.833,364.5 192.5,364C 193.651,361.535 194.651,359.035 195.5,356.5 Z"/></g>
<g><path style="opacity:1" fill="#974767" d="M 220.5,360.5 C 221.873,360.343 223.207,360.51 224.5,361C 222.797,361.745 221.13,362.579 219.5,363.5C 218.833,363.333 218.167,363.167 217.5,363C 218.571,362.148 219.571,361.315 220.5,360.5 Z"/></g>
<g><path style="opacity:1" fill="#964666" d="M 423.5,363.5 C 422.167,363.5 420.833,363.5 419.5,363.5C 419.586,362.504 419.252,361.671 418.5,361C 420.108,360.342 421.275,360.842 422,362.5C 423.171,360.384 424.671,359.718 426.5,360.5C 425.23,361.288 424.23,362.288 423.5,363.5 Z"/></g>
<g><path style="opacity:1" fill="#e27f82" d="M 204.5,361.5 C 205.737,362.743 205.404,363.743 203.5,364.5C 203.167,364.167 202.833,363.833 202.5,363.5C 203.243,362.818 203.909,362.151 204.5,361.5 Z"/></g>
<g><path style="opacity:1" fill="#ee8585" d="M 233.5,360.5 C 237.514,360.334 241.514,360.501 245.5,361C 241.427,362.072 238.593,364.572 237,368.5C 234.52,370.09 232.687,369.59 231.5,367C 232.096,364.775 232.763,362.608 233.5,360.5 Z"/></g>
<g><path style="opacity:1" fill="#dc777e" d="M 179.5,362.5 C 181.372,363.359 183.038,363.692 184.5,363.5C 182.896,367.259 180.896,367.425 178.5,364C 179.056,363.617 179.389,363.117 179.5,362.5 Z"/></g>
<g><path style="opacity:1" fill="#f69b8f" d="M 189.5,363.5 C 189.157,365.225 188.157,365.725 186.5,365C 187.244,363.961 188.244,363.461 189.5,363.5 Z"/></g>
<g><path style="opacity:1" fill="#de7b80" d="M 228.5,361.5 C 229.5,361.5 230.5,361.5 231.5,361.5C 231.419,368.163 229.086,369.163 224.5,364.5C 226.184,363.85 227.517,362.85 228.5,361.5 Z"/></g>
<g><path style="opacity:1" fill="#ed8d88" d="M 267.5,363.5 C 268.978,363.238 270.311,363.571 271.5,364.5C 269.537,367.194 268.203,366.861 267.5,363.5 Z"/></g>
<g><path style="opacity:1" fill="#f18f8a" d="M 321.5,366.5 C 319.5,366.167 317.5,365.833 315.5,365.5C 315.082,364.778 314.416,364.278 313.5,364C 314.167,363.833 314.833,363.667 315.5,363.5C 318.537,363.853 320.537,364.853 321.5,366.5 Z"/></g>
<g><path style="opacity:1" fill="#df7e82" d="M 328.5,364.5 C 330.857,364.337 333.19,364.503 335.5,365C 332.833,366.333 330.167,367.667 327.5,369C 325.741,369.798 324.074,369.631 322.5,368.5C 324.565,367.143 326.565,365.81 328.5,364.5 Z"/></g>
<g><path style="opacity:1" fill="#dc787e" d="M 361.5,365.5 C 363.688,366.536 363.688,368.036 361.5,370C 359.5,370.667 357.5,370.667 355.5,370C 357.684,368.637 359.684,367.137 361.5,365.5 Z"/></g>
<g><path style="opacity:1" fill="#f08885" d="M 295.5,365.5 C 296.873,365.343 298.207,365.51 299.5,366C 296.705,367.793 294.205,369.96 292,372.5C 292.579,370.008 293.746,367.675 295.5,365.5 Z"/></g>
<g><path style="opacity:1" fill="#8e4064" d="M 315.5,365.5 C 317.5,365.833 319.5,366.167 321.5,366.5C 321.167,367.5 320.5,368.167 319.5,368.5C 318.167,367.5 316.833,366.5 315.5,365.5 Z"/></g>
<g><path style="opacity:1" fill="#f48a87" d="M 428.5,369.5 C 426.167,369.5 423.833,369.5 421.5,369.5C 421.343,368.127 421.51,366.793 422,365.5C 425.139,365.061 428.306,365.561 431.5,367C 430.627,368.045 429.627,368.878 428.5,369.5 Z"/></g>
<g><path style="opacity:1" fill="#f38c87" d="M 288.5,366.5 C 289.552,366.351 290.552,366.517 291.5,367C 287.237,373.188 286.237,373.021 288.5,366.5 Z"/></g>
<g><path style="opacity:1" fill="#a8556d" d="M 339.5,364.5 C 340.391,365.11 341.391,365.443 342.5,365.5C 341.68,367.14 340.847,368.807 340,370.5C 339.487,368.479 338.32,366.979 336.5,366C 337.737,365.768 338.737,365.268 339.5,364.5 Z"/></g>
<g><path style="opacity:1" fill="#eb7e80" d="M 372.5,365.5 C 373.043,365.56 373.376,365.893 373.5,366.5C 368.886,372.949 368.552,372.616 372.5,365.5 Z"/></g>
<g><path style="opacity:1" fill="#f18a87" d="M 315.5,365.5 C 316.833,366.5 318.167,367.5 319.5,368.5C 317.972,369.309 316.306,369.976 314.5,370.5C 310.833,369.833 307.167,369.167 303.5,368.5C 303.962,367.12 304.962,366.453 306.5,366.5C 308.473,367.331 310.473,367.498 312.5,367C 310.754,366.529 309.087,365.862 307.5,365C 310.119,365.083 312.786,365.25 315.5,365.5 Z"/></g>
<g><path style="opacity:1" fill="#eb8886" d="M 368.5,363.5 C 369.552,363.351 370.552,363.517 371.5,364C 369.548,366.074 367.715,368.241 366,370.5C 365.683,367.793 366.516,365.46 368.5,363.5 Z"/></g>
<g><path style="opacity:1" fill="#f08785" d="M 468.5,366.5 C 467.198,368.822 465.198,370.155 462.5,370.5C 461.192,369.768 459.858,368.934 458.5,368C 461.688,366.684 465.022,366.184 468.5,366.5 Z"/></g>
<g><path style="opacity:1" fill="#f96a74" d="M 303.5,368.5 C 307.167,369.167 310.833,369.833 314.5,370.5C 310.339,372.063 306.005,372.729 301.5,372.5C 301.229,370.62 301.896,369.287 303.5,368.5 Z"/></g>
<g><path style="opacity:1" fill="#e1596e" d="M 421.5,369.5 C 423.833,369.5 426.167,369.5 428.5,369.5C 427.254,372.643 424.92,374.643 421.5,375.5C 420.481,373.54 420.481,371.54 421.5,369.5 Z"/></g>
<g><path style="opacity:1" fill="#ed6c75" d="M 284.5,368.5 C 285.434,369.568 285.768,370.901 285.5,372.5C 283.488,373.014 281.488,373.18 279.5,373C 281.618,371.951 283.284,370.451 284.5,368.5 Z"/></g>
<g><path style="opacity:1" fill="#e86573" d="M 462.5,370.5 C 459.086,375.369 454.42,377.202 448.5,376C 450.337,374.048 452.671,373.048 455.5,373C 452.332,372.418 451.999,371.418 454.5,370C 457.119,370.083 459.786,370.25 462.5,370.5 Z"/></g>
<g><path style="opacity:1" fill="#d56071" d="M 299.5,367.5 C 300.525,367.897 300.692,368.563 300,369.5C 298.887,371.329 297.387,372.163 295.5,372C 297.041,370.629 298.375,369.129 299.5,367.5 Z"/></g>
<g><path style="opacity:1" fill="#e1536c" d="M 391.5,368.5 C 395.298,369.483 399.298,369.817 403.5,369.5C 397.753,372.174 392.919,375.507 389,379.5C 385.566,374.993 386.399,371.327 391.5,368.5 Z"/></g>
<g><path style="opacity:1" fill="#ea6472" d="M 397.5,373.5 C 399.646,373.696 399.812,374.696 398,376.5C 396.951,377.517 395.784,377.684 394.5,377C 395.71,375.961 396.71,374.794 397.5,373.5 Z"/></g>
<g><path style="opacity:1" fill="#e95f71" d="M 418.5,365.5 C 419.473,367.948 419.806,370.615 419.5,373.5C 412.839,373.413 407.672,376.08 404,381.5C 403.879,379.273 403.046,377.44 401.5,376C 404.733,371.378 409.066,368.212 414.5,366.5C 416.396,368.106 417.729,367.773 418.5,365.5 Z"/></g>
<g><path style="opacity:1" fill="#f0787d" d="M 442.5,373.5 C 448.596,373.316 448.763,374.649 443,377.5C 442.167,377.333 441.333,377.167 440.5,377C 441.305,375.887 441.972,374.721 442.5,373.5 Z"/></g>
<g><path style="opacity:1" fill="#df6170" d="M 417.5,374.5 C 418.376,374.369 419.043,374.702 419.5,375.5C 417.064,379.08 413.73,380.246 409.5,379C 412.099,377.205 414.766,375.705 417.5,374.5 Z"/></g>
<g><path style="opacity:1" fill="#e66875" d="M 433.5,373.5 C 434.043,373.56 434.376,373.893 434.5,374.5C 433.125,377.729 430.792,378.896 427.5,378C 428.747,375.379 430.747,373.879 433.5,373.5 Z"/></g>
<g><path style="opacity:1" fill="#c5506a" d="M 436.5,375.5 C 437.688,377.496 437.021,378.329 434.5,378C 435.381,377.292 436.047,376.458 436.5,375.5 Z"/></g>
</svg>
